:version 1.10
:name ASF
:units
  mass 1
  length 1
  angle deg
:documentation
  ASF file generated by Kaydara
:root
  axis xyz
  order  tx ty tz rx ry rz
  position 0 0 0
  orientation 0 0 0
:bonedata
  begin
    id 1
    name SpineDummy
    direction 0.999998 -0.00179978 1.38929e-006
    length 3.60008
    axis 0 0 0 xyz
  end
  begin
    id 2
    name Spine
    direction 0.964365 0.262802 0.0305839
    length 8.13928
    axis 1.33928 -1.75354 15.2838 xyz
    dof rx ry rz
  end
  begin
    id 3
    name Spine1
    direction 0.811168 0.572065 0.12144
    length 7.14954
    axis 2.2224 -6.9761 35.2157 xyz
    dof rx ry rz
  end
  begin
    id 4
    name Neck
    direction 0 0 0
    length 0
    axis 2.2224 -6.9761 35.2157 xyz
    dof rx ry rz
  end
  begin
    id 5
    name HeadDummy
    direction 0.810939 0.572387 0.121455
    length 3.55534
    axis 2.2224 -6.9761 35.2157 xyz
  end
  begin
    id 6
    name Head
    direction 0.998226 -0.000232542 0.0595419
    length 7.35666
    axis -3.03688 -3.41352 -0.0133467 xyz
    dof rx ry rz
  end
  begin
    id 7
    name R_ClavicleDummy
    direction 0.531669 -0.194489 -0.824319
    length 2.49392
    axis 2.2224 -6.9761 35.2157 xyz
  end
  begin
    id 8
    name R_Clavicle
    direction -0.155119 0.0480802 -0.986725
    length 4.485
    axis -54.2764 80.6538 162.779 xyz
    dof rx ry rz
  end
  begin
    id 9
    name R_UpperArm
    direction -0.955567 0.200068 -0.216484
    length 10.1122
    axis -72.9943 12.5026 168.175 xyz
    dof rx ry rz
  end
  begin
    id 10
    name R_Forearm
    direction -0.61433 0.385743 0.688332
    length 9.39148
    axis -117.015 -43.4982 147.875 xyz
    dof rx ry rz
  end
  begin
    id 11
    name R_Hand
    direction -0.699429 0.0170333 0.714499
    length 3.66324
    axis -45.0303 -36.7097 175.478 xyz
    dof rx ry rz
  end
  begin
    id 12
    name L_ClavicleDummy
    direction 0.40287 -0.36502 0.839319
    length 2.49392
    axis 2.2224 -6.9761 35.2157 xyz
  end
  begin
    id 13
    name L_Clavicle
    direction -0.231271 -0.0726419 0.970174
    length 4.485
    axis 18.4357 -75.9711 -162.563 xyz
    dof rx ry rz
  end
  begin
    id 14
    name L_UpperArm
    direction -0.917494 0.144359 0.370629
    length 10.1122
    axis 56.0417 -21.7544 171.058 xyz
    dof rx ry rz
  end
  begin
    id 15
    name L_Forearm
    direction -0.496786 0.615074 -0.612281
    length 9.39148
    axis 89.8094 37.7546 128.927 xyz
    dof rx ry rz
  end
  begin
    id 16
    name L_Hand
    direction -0.409932 0.64962 -0.640274
    length 3.66324
    axis -0.424369 32.133 128.52 xyz
    dof rx ry rz
  end
  begin
    id 17
    name L_ThighDummy
    direction -1.84081e-006 1.87549e-006 1
    length 3.13049
    axis 0 0 0 xyz
  end
  begin
    id 18
    name L_Thigh
    direction -0.947739 0.307978 0.083308
    length 17.9961
    axis 173.219 -4.77873 161.998 xyz
    dof rx ry rz
  end
  begin
    id 19
    name L_Calf
    direction -0.728814 -0.684427 0.0197583
    length 13.3367
    axis 167.331 -1.13214 -136.799 xyz
    dof rx ry rz
  end
  begin
    id 20
    name L_Foot
    direction -0.9028 0.418719 0.0981191
    length 5.8674
    axis 163.436 11.5135 -155.37 xyz
    dof rx ry rz
  end
  begin
    id 21
    name L_Toe0
    direction -0.35341 0.886259 0.299411
    length 4.75286
    axis 169.316 -17.4222 111.74 xyz
    dof rx ry rz
  end
  begin
    id 22
    name R_ThighDummy
    direction 9.32778e-007 -8.82053e-007 -1
    length 3.13049
    axis 0 0 0 xyz
  end
  begin
    id 23
    name R_Thigh
    direction -0.925064 0.37528 -0.0585023
    length 17.9961
    axis -178.698 3.35385 157.919 xyz
    dof rx ry rz
  end
  begin
    id 24
    name R_Calf
    direction -0.68969 -0.718776 -0.0876886
    length 13.3367
    axis -160.504 5.03065 -133.817 xyz
    dof rx ry rz
  end
  begin
    id 25
    name R_Foot
    direction -0.857405 0.418858 -0.299022
    length 5.8674
    axis -161.328 4.38911 -154.413 xyz
    dof rx ry rz
  end
  begin
    id 26
    name R_Toe0
    direction -0.100745 0.952789 -0.286433
    length 4.75286
    axis 171.683 16.6445 96.0359 xyz
    dof rx ry rz
  end
:hierarchy
  begin
    root SpineDummy L_ThighDummy R_ThighDummy
    SpineDummy Spine
    Spine Spine1
    Spine1 Neck
    Neck HeadDummy R_ClavicleDummy L_ClavicleDummy
    HeadDummy Head
    R_ClavicleDummy R_Clavicle
    R_Clavicle R_UpperArm
    R_UpperArm R_Forearm
    R_Forearm R_Hand
    L_ClavicleDummy L_Clavicle
    L_Clavicle L_UpperArm
    L_UpperArm L_Forearm
    L_Forearm L_Hand
    L_ThighDummy L_Thigh
    L_Thigh L_Calf
    L_Calf L_Foot
    L_Foot L_Toe0
    R_ThighDummy R_Thigh
    R_Thigh R_Calf
    R_Calf R_Foot
    R_Foot R_Toe0
  end

:SAMPLES-PER-SECOND 30
:FULLY-SPECIFIED
:DEGREES
26
root  -0.516572 28.109 3.09843 -71.292 -1.18371 81.4874
Spine  2.31474 3.49487 -3.75776
Spine1  1.66669 -9.56234 6.25648
Neck  3.97569e-016 0 -2.38542e-015
Head  -6.42566 -4.51212 -6.35027
R_Clavicle  0.409596 -19.8572 1.58271
R_UpperArm  18.1051 2.0313 27.6292
R_Forearm  33.0594 -3.93722 3.25584
R_Hand  -1.01708 6.49013 -18.862
L_Clavicle  -0.730076 23.9156 -0.587938
L_UpperArm  -3.18726 -0.75136 21.2546
L_Forearm  -15.4727 15.2758 18.3772
L_Hand  -0.655074 2.36483 -9.23333
L_Thigh  2.20463 -13.7816 4.80884
L_Calf  -1.59396 1.42438 -10.4278
L_Foot  9.41355 6.18283 28.3761
L_Toe0  0.359219 0.0362134 -6.0875
R_Thigh  -2.56526 -7.7839 0.623817
R_Calf  5.60945 -2.41951 -7.40272
R_Foot  4.96442 14.5798 25.3326
R_Toe0  -1.90364 -0.273213 -17.389
27
root  -0.800519 28.1886 2.89048 -70.2405 -1.11229 81.0465
Spine  2.53668 3.44197 -4.78864
Spine1  1.85222 -9.39437 6.8279
Neck  3.97569e-016 0 -2.38542e-015
Head  -8.46072 -4.75736 -4.7185
R_Clavicle  0.421961 -20.8655 2.11841
R_UpperArm  20.257 -1.05507 32.5156
R_Forearm  30.0609 7.08134 -5.95206
R_Hand  -0.574576 5.36148 -14.4392
L_Clavicle  -0.62484 23.268 0.652614
L_UpperArm  -0.719127 -1.31555 19.9817
L_Forearm  -10.3643 9.3451 10.9464
L_Hand  -0.553755 3.79389 -6.57731
L_Thigh  1.57056 -14.1596 3.97329
L_Calf  -0.357158 1.35699 -9.89311
L_Foot  9.60731 6.74916 28.0734
L_Toe0  0.16506 0.0326796 -5.68682
R_Thigh  -3.10599 -8.02254 -0.309918
R_Calf  7.63755 -2.39512 -7.33888
R_Foot  5.25055 15.1191 24.7097
R_Toe0  -1.50594 -0.267742 -17.163
28
root  -1.05172 28.9496 2.6646 -69.3662 -0.687381 81.106
Spine  2.11303 2.55568 -6.29315
Spine1  1.61335 -8.09328 5.9538
Neck  3.97569e-016 0 -2.38542e-015
Head  -10.5947 -4.03443 -2.93512
R_Clavicle  0.421121 -20.281 2.06343
R_UpperArm  19.6535 -5.66139 35.3389
R_Forearm  23.7868 16.3304 -14.1197
R_Hand  -0.139381 5.22365 -10.2606
L_Clavicle  -0.55414 20.7902 0.916281
L_UpperArm  -0.595777 1.83508 20.2872
L_Forearm  -7.10162 3.35421 3.87027
L_Hand  -0.398963 4.868 -4.21455
L_Thigh  1.04717 -13.865 2.149
L_Calf  0.797633 0.754879 -5.45011
L_Foot  9.41376 8.50509 24.7926
L_Toe0  0.298918 0.0239701 -4.18841
R_Thigh  -3.13079 -7.69449 -1.23297
R_Calf  11.0677 -1.68627 -5.13138
R_Foot  3.82042 12.5795 19.3142
R_Toe0  0.839229 -0.307739 -15.8231
29
root  -1.26119 30.2782 2.44929 -68.9498 0.119195 82.0108
Spine  1.18736 1.51226 -8.5116
Spine1  0.960866 -5.80965 4.52559
Neck  3.97569e-016 0 -2.38542e-015
Head  -12.0558 -3.0111 -1.04495
R_Clavicle  0.415613 -19.944 1.82175
R_UpperArm  16.0271 -7.9696 36.002
R_Forearm  14.5952 21.5988 -19.2347
R_Hand  0.0948029 5.38237 -8.23711
L_Clavicle  -0.540676 19.5499 0.4953
L_UpperArm  -0.00140895 4.8445 21.3156
L_Forearm  -8.01584 -0.864042 -1.00931
L_Hand  -0.319018 5.13836 -3.23163
L_Thigh  1.04962 -12.8519 -0.285049
L_Calf  2.50213 -0.335563 2.49726
L_Foot  8.56465 11.2691 18.4849
L_Toe0  0.279522 -6.27166e-005 -2.20998
R_Thigh  -1.52063 -6.99645 -1.26074
R_Calf  15.9881 -0.328646 -0.890828
R_Foot  1.39511 6.35111 9.23207
R_Toe0  4.88101 -0.634302 -13.4825
30
root  -1.42861 31.8129 2.2761 -69.2803 1.06877 83.4307
Spine  0.287303 0.853622 -10.5868
Spine1  0.256852 -3.60087 2.59271
Neck  3.97569e-016 0 -2.38542e-015
Head  -13.2653 -2.25637 1.08946
R_Clavicle  0.41373 -20.0779 1.70637
R_UpperArm  11.8942 -8.58797 35.8425
R_Forearm  4.19542 24.4432 -22.218
R_Hand  0.294377 5.41219 -6.43012
L_Clavicle  -0.551993 19.3231 -0.0563568
L_UpperArm  1.39301 6.72973 21.7417
L_Forearm  -9.84805 -3.17591 -3.68468
L_Hand  -0.291279 5.50434 -2.82103
L_Thigh  0.861583 -11.3772 -2.43498
L_Calf  4.39069 -1.56838 11.5848
L_Foot  6.09387 13.0028 9.05041
L_Toe0  1.45638 -0.1906 0.71734
R_Thigh  1.56956 -6.04797 -0.489023
R_Calf  17.859 1.65561 5.23749
R_Foot  -0.517518 -2.72679 -1.90341
R_Toe0  9.80767 -1.51271 -10.6933
